<svg xmlns="http://www.w3.org/2000/svg" viewBox="0 0 640 460" fill="none"><defs><linearGradient id="bg" x1="78" y1="26" x2="562" y2="420" gradientUnits="userSpaceOnUse"><stop stop-color="#5E1024"/><stop offset=".44" stop-color="#160F17"/><stop offset="1" stop-color="#09070D"/></linearGradient></defs><rect width="640" height="460" rx="34" fill="url(#bg)"/><ellipse cx="320" cy="404" rx="172" ry="28" fill="#03040A" fill-opacity=".82"/><path d="M320 104c43 0 78 35 78 78v24h-30l-11 166h-74l-11-166h-30v-24c0-43 35-78 78-78Z" fill="#6D102B"/><path d="M288 112h64l18 46H270l18-46Z" fill="#8E1338"/><path d="M276 224h88l-8 66c-5 43-67 64-92 33-7-8-11-20-12-33l24-66Z" fill="#7B1432"/><path d="M298 274h44" stroke="#F9A8D4" stroke-opacity=".34" stroke-width="4" stroke-linecap="round"/></svg>
